{
  "accessors": [
    {
      "bufferView": 2,
      "componentType": 5126,
      "count": 296,
      "max": [
        5.374557971954346,
        1.1122177839279175,
        0.4889226257801056
      ],
      "min": [
        -4.196048259735107,
        -1.1593974828720093,
        -0.4889226257801056
      ],
      "type": "VEC3"
    },
    {
      "bufferView": 2,
      "byteOffset": 3552,
      "componentType": 5126,
      "count": 296,
      "max": [
        0.27072620391845703,
        0.9937438368797302,
        1.0
      ],
      "min": [
        -0.33311083912849426,
        -0.8882561326026917,
        -1.0
      ],
      "type": "VEC3"
    },
    {
      "bufferView": 1,
      "componentType": 5126,
      "count": 296,
      "max": [
        0.8676174879074097,
        0.8931804895401001
      ],
      "min": [
        0.223842591047287,
        0.12377116084098816
      ],
      "type": "VEC2"
    },
    {
      "bufferView": 0,
      "componentType": 5125,
      "count": 444,
      "type": "SCALAR"
    },
    {
      "bufferView": 2,
      "byteOffset": 7104,
      "componentType": 5126,
      "count": 320,
      "max": [
        1.0,
        1.0,
        65.15017700195313
      ],
      "min": [
        -1.0,
        -1.0,
        -162.0464630126953
      ],
      "type": "VEC3"
    },
    {
      "bufferView": 2,
      "byteOffset": 10944,
      "componentType": 5126,
      "count": 320,
      "max": [
        0.9951806664466858,
        0.9951807260513306,
        1.0
      ],
      "min": [
        -0.9951807260513306,
        -0.9951807260513306,
        -1.0
      ],
      "type": "VEC3"
    },
    {
      "bufferView": 1,
      "byteOffset": 2368,
      "componentType": 5126,
      "count": 320,
      "max": [
        1.0,
        1.0
      ],
      "min": [
        0.0,
        0.01000000536441803
      ],
      "type": "VEC2"
    },
    {
      "bufferView": 0,
      "byteOffset": 1776,
      "componentType": 5125,
      "count": 564,
      "type": "SCALAR"
    },
    {
      "bufferView": 2,
      "byteOffset": 14784,
      "componentType": 5126,
      "count": 296,
      "max": [
        5.374557971954346,
        1.1122177839279175,
        0.4889226257801056
      ],
      "min": [
        -4.196048259735107,
        -1.1593974828720093,
        -0.4889226257801056
      ],
      "type": "VEC3"
    },
    {
      "bufferView": 2,
      "byteOffset": 18336,
      "componentType": 5126,
      "count": 296,
      "max": [
        0.27072620391845703,
        0.9937438368797302,
        1.0
      ],
      "min": [
        -0.33311083912849426,
        -0.8882561326026917,
        -1.0
      ],
      "type": "VEC3"
    },
    {
      "bufferView": 1,
      "byteOffset": 4928,
      "componentType": 5126,
      "count": 296,
      "max": [
        0.8676174879074097,
        0.8931804895401001
      ],
      "min": [
        0.223842591047287,
        0.12377116084098816
      ],
      "type": "VEC2"
    },
    {
      "bufferView": 0,
      "byteOffset": 4032,
      "componentType": 5125,
      "count": 444,
      "type": "SCALAR"
    },
    {
      "bufferView": 2,
      "byteOffset": 21888,
      "componentType": 5126,
      "count": 296,
      "max": [
        5.374557971954346,
        1.1122177839279175,
        0.4889226257801056
      ],
      "min": [
        -4.196048259735107,
        -1.1593974828720093,
        -0.4889226257801056
      ],
      "type": "VEC3"
    },
    {
      "bufferView": 2,
      "byteOffset": 25440,
      "componentType": 5126,
      "count": 296,
      "max": [
        0.27072620391845703,
        0.9937438368797302,
        1.0
      ],
      "min": [
        -0.33311083912849426,
        -0.8882561326026917,
        -1.0
      ],
      "type": "VEC3"
    },
    {
      "bufferView": 1,
      "byteOffset": 7296,
      "componentType": 5126,
      "count": 296,
      "max": [
        0.8676174879074097,
        0.8931804895401001
      ],
      "min": [
        0.223842591047287,
        0.12377116084098816
      ],
      "type": "VEC2"
    },
    {
      "bufferView": 0,
      "byteOffset": 5808,
      "componentType": 5125,
      "count": 444,
      "type": "SCALAR"
    },
    {
      "bufferView": 2,
      "byteOffset": 28992,
      "componentType": 5126,
      "count": 296,
      "max": [
        5.374557971954346,
        1.1122177839279175,
        0.4889226257801056
      ],
      "min": [
        -4.196048259735107,
        -1.1593974828720093,
        -0.4889226257801056
      ],
      "type": "VEC3"
    },
    {
      "bufferView": 2,
      "byteOffset": 32544,
      "componentType": 5126,
      "count": 296,
      "max": [
        0.27072620391845703,
        0.9937438368797302,
        1.0
      ],
      "min": [
        -0.33311083912849426,
        -0.8882561326026917,
        -1.0
      ],
      "type": "VEC3"
    },
    {
      "bufferView": 1,
      "byteOffset": 9664,
      "componentType": 5126,
      "count": 296,
      "max": [
        0.8676174879074097,
        0.8931804895401001
      ],
      "min": [
        0.223842591047287,
        0.12377116084098816
      ],
      "type": "VEC2"
    },
    {
      "bufferView": 0,
      "byteOffset": 7584,
      "componentType": 5125,
      "count": 444,
      "type": "SCALAR"
    }
  ],
  "asset": {
    "extras": {
      "author": "vw249 (https://sketchfab.com/vw249)",
      "license": "CC-BY-4.0 (http://creativecommons.org/licenses/by/4.0/)",
      "source": "https://sketchfab.com/3d-models/fried-fish-30e38ced7f93486a9bb9a61d41f971d2",
      "title": "Fried fish"
    },
    "generator": "Sketchfab-12.66.0",
    "version": "2.0"
  },
  "bufferViews": [
    {
      "buffer": 0,
      "byteLength": 9360,
      "name": "floatBufferViews",
      "target": 34963
    },
    {
      "buffer": 0,
      "byteLength": 12032,
      "byteOffset": 9360,
      "byteStride": 8,
      "name": "floatBufferViews",
      "target": 34962
    },
    {
      "buffer": 0,
      "byteLength": 36096,
      "byteOffset": 21392,
      "byteStride": 12,
      "name": "floatBufferViews",
      "target": 34962
    }
  ],
  "buffers": [
    {
      "byteLength": 57488,
      "uri": "scene.bin"
    }
  ],
  "images": [
    {
      "uri": "textures/Material_baseColor.jpeg"
    }
  ],
  "materials": [
    {
      "doubleSided": true,
      "name": "Material",
      "pbrMetallicRoughness": {
        "baseColorFactor": [
          0.8149634110163685,
          0.8149634110163685,
          0.8149634110163685,
          1.0
        ],
        "baseColorTexture": {
          "index": 0
        },
        "metallicFactor": 0.0,
        "roughnessFactor": 0.8040408205773457
      }
    },
    {
      "doubleSided": true,
      "name": "Material.001",
      "pbrMetallicRoughness": {
        "baseColorFactor": [
          0.17435,
          0.0151812,
          0.0,
          1.0
        ],
        "metallicFactor": 0.0,
        "roughnessFactor": 0.9848449727094969
      }
    }
  ],
  "meshes": [
    {
      "name": "Cube_Material_0",
      "primitives": [
        {
          "attributes": {
            "NORMAL": 1,
            "POSITION": 0,
            "TEXCOORD_0": 2
          },
          "indices": 3,
          "material": 0,
          "mode": 4
        }
      ]
    },
    {
      "name": "Cylinder_Material.001_0",
      "primitives": [
        {
          "attributes": {
            "NORMAL": 5,
            "POSITION": 4,
            "TEXCOORD_0": 6
          },
          "indices": 7,
          "material": 1,
          "mode": 4
        }
      ]
    },
    {
      "name": "Cube.001_Material_0",
      "primitives": [
        {
          "attributes": {
            "NORMAL": 9,
            "POSITION": 8,
            "TEXCOORD_0": 10
          },
          "indices": 11,
          "material": 0,
          "mode": 4
        }
      ]
    },
    {
      "name": "Cube.002_Material_0",
      "primitives": [
        {
          "attributes": {
            "NORMAL": 13,
            "POSITION": 12,
            "TEXCOORD_0": 14
          },
          "indices": 15,
          "material": 0,
          "mode": 4
        }
      ]
    },
    {
      "name": "Cube.003_Material_0",
      "primitives": [
        {
          "attributes": {
            "NORMAL": 17,
            "POSITION": 16,
            "TEXCOORD_0": 18
          },
          "indices": 19,
          "material": 0,
          "mode": 4
        }
      ]
    }
  ],
  "nodes": [
    {
      "children": [
        1
      ],
      "matrix": [
        1.0,
        0.0,
        0.0,
        0.0,
        0.0,
        2.220446049250313e-16,
        -1.0,
        0.0,
        0.0,
        1.0,
        2.220446049250313e-16,
        0.0,
        0.0,
        0.0,
        0.0,
        1.0
      ],
      "name": "Sketchfab_model"
    },
    {
      "children": [
        2
      ],
      "matrix": [
        1.0,
        0.0,
        0.0,
        0.0,
        0.0,
        0.0,
        1.0,
        0.0,
        0.0,
        -1.0,
        0.0,
        0.0,
        0.0,
        0.0,
        0.0,
        1.0
      ],
      "name": "c3537b0c86d74fc097d617c4e85ef307.fbx"
    },
    {
      "children": [
        3,
        5,
        8,
        10,
        12,
        14,
        16
      ],
      "name": "RootNode"
    },
    {
      "children": [
        4
      ],
      "matrix": [
        36.19802138896587,
        -0.8088838774771042,
        6.106904985011867e-08,
        0.0,
        0.8088838774771064,
        36.19802138896576,
        -2.732192344234993e-06,
        0.0,
        -1.525766613979268e-11,
        2.732874468533304e-06,
        36.20705413818349,
        0.0,
        2.7553887367248535,
        151.54635620117188,
        2.0361592760309577e-05,
        1.0
      ],
      "name": "Cube"
    },
    {
      "mesh": 0,
      "name": "Cube_Material_0"
    },
    {
      "children": [
        6
      ],
      "matrix": [
        -29.08647719990347,
        -5.518906457566863,
        -95.51711910171437,
        0.0,
        56.63930913109449,
        79.46723428563203,
        -21.83912397841966,
        0.0,
        77.11008775993375,
        -60.45246356562044,
        -19.98834696773717,
        0.0,
        410.37994384765625,
        741.9325561523438,
        -100.54537200927734,
        1.0
      ],
      "name": "Light"
    },
    {
      "children": [
        7
      ],
      "matrix": [
        1.0,
        0.0,
        0.0,
        0.0,
        0.0,
        2.220446049250313e-16,
        1.0,
        0.0,
        0.0,
        -1.0,
        2.220446049250313e-16,
        0.0,
        0.0,
        0.0,
        0.0,
        1.0
      ],
      "name": "Object_6"
    },
    {
      "name": "Object_7"
    },
    {
      "children": [
        9
      ],
      "matrix": [
        -65.15583280329096,
        -44.52713576570858,
        -61.41703047373549,
        0.0,
        -32.40134137821245,
        89.53957451233616,
        -30.542088974418615,
        0.0,
        68.59205472129975,
        -1.0718647115348782e-05,
        -72.7676336239627,
        0.0,
        735.88916015625,
        495.8309326171875,
        692.5791015625,
        1.0
      ],
      "name": "Camera"
    },
    {
      "name": "Object_9"
    },
    {
      "children": [
        11
      ],
      "matrix": [
        3.725632667541504,
        0.0,
        0.0,
        0.0,
        0.0,
        -6.06982605360263e-07,
        -3.7256326675414546,
        0.0,
        0.0,
        3.7256326675414546,
        -6.06982605360263e-07,
        0.0,
        0.0,
        0.0,
        0.0,
        1.0
      ],
      "name": "Cylinder"
    },
    {
      "mesh": 1,
      "name": "Cylinder_Material.001_0"
    },
    {
      "children": [
        13
      ],
      "matrix": [
        36.19802138896587,
        -0.8088838774771042,
        6.106904985011867e-08,
        0.0,
        0.8088838774771064,
        36.19802138896576,
        -2.732192344234993e-06,
        0.0,
        -1.525766613979268e-11,
        2.732874468533304e-06,
        36.20705413818349,
        0.0,
        2.7553887367248535,
        51.54636001586914,
        6.925708476046566e-06,
        1.0
      ],
      "name": "Cube.001"
    },
    {
      "mesh": 2,
      "name": "Cube.001_Material_0"
    },
    {
      "children": [
        15
      ],
      "matrix": [
        36.19802138896587,
        -0.8088838774771042,
        6.106904985011867e-08,
        0.0,
        0.8088838774771064,
        36.19802138896576,
        -2.732192344234993e-06,
        0.0,
        -1.525766613979268e-11,
        2.732874468533304e-06,
        36.20705413818349,
        0.0,
        2.7553887367248535,
        -48.45363998413086,
        -6.510175808216445e-06,
        1.0
      ],
      "name": "Cube.002"
    },
    {
      "mesh": 3,
      "name": "Cube.002_Material_0"
    },
    {
      "children": [
        17
      ],
      "matrix": [
        36.19802138896587,
        -0.8088838774771042,
        6.106904985011867e-08,
        0.0,
        0.8088838774771064,
        36.19802138896576,
        -2.732192344234993e-06,
        0.0,
        -1.525766613979268e-11,
        2.732874468533304e-06,
        36.20705413818349,
        0.0,
        2.7553887367248535,
        -148.45364379882813,
        -1.9946059182984754e-05,
        1.0
      ],
      "name": "Cube.003"
    },
    {
      "mesh": 4,
      "name": "Cube.003_Material_0"
    }
  ],
  "samplers": [
    {
      "magFilter": 9729,
      "minFilter": 9987,
      "wrapS": 10497,
      "wrapT": 10497
    }
  ],
  "scene": 0,
  "scenes": [
    {
      "name": "Sketchfab_Scene",
      "nodes": [
        0
      ]
    }
  ],
  "textures": [
    {
      "sampler": 0,
      "source": 0
    }
  ]
}
